<svg width="235" height="38" viewBox="0 0 235 38" fill="none" xmlns="http://www.w3.org/2000/svg">
<path d="M207.176 21.7521C207.176 21.0014 207.176 20.2754 207.176 19.5473C207.18 16.9783 207.151 14.4073 207.195 11.8384C207.261 7.90114 209.678 4.31568 213.393 3.31551C214.553 3.00257 215.794 2.94735 217.005 2.86963C220.002 2.67737 223.004 2.54442 226.003 2.38284C228.179 2.26625 230.356 2.13944 232.532 2.01877C232.682 2.01059 232.833 2.01877 233.015 2.01877C233.033 2.16194 233.062 2.27648 233.062 2.38897C233.064 4.65316 233.062 6.91734 233.068 9.18152C233.068 9.48627 233.006 9.63967 232.649 9.65604C229.219 9.8033 225.791 9.97102 222.36 10.1203C220.147 10.2185 217.934 10.2942 215.722 10.3842C215.025 10.4128 214.647 10.7871 214.633 11.4764C214.619 12.2597 214.623 13.0431 214.633 13.8244C214.639 14.4053 214.876 14.7203 215.464 14.8062C216.176 14.9084 216.898 14.9514 217.616 14.9964C220.374 15.1723 223.132 15.3339 225.89 15.5098C228.425 15.6693 230.96 15.837 233.495 16.0047C233.664 16.015 233.833 16.0538 234.056 16.0886V16.6981C234.056 19.9829 234.05 23.2697 234.058 26.5545C234.065 28.7716 233.068 30.5102 231.43 31.9215C229.553 33.5373 227.307 34.1018 224.86 34.1529C221.205 34.2306 217.55 34.3799 213.895 34.5047C211.836 34.5763 209.779 34.6601 207.677 34.7399V28.0333C208.942 27.9903 210.19 27.9515 211.436 27.9065C214.885 27.7878 218.332 27.6651 221.781 27.5465C222.948 27.5056 224.114 27.4688 225.281 27.4319C225.906 27.4135 226.31 27.0392 226.325 26.4195C226.341 25.6546 226.325 24.8876 226.331 24.1226C226.335 23.6092 226.073 23.3167 225.58 23.2533C224.883 23.1633 224.184 23.0938 223.482 23.0386C219.685 22.742 215.885 22.4557 212.088 22.1591C210.499 22.0343 208.913 21.8952 207.178 21.75L207.176 21.7521Z" fill="white"/>
<path d="M22.0693 6.00102C23.6989 5.90693 25.2914 5.81694 26.8818 5.7249C27.8245 5.66967 28.7672 5.6165 29.7078 5.54286C30.0379 5.51627 30.1802 5.6124 30.2813 5.94579C31.7356 10.7012 33.2063 15.4525 34.675 20.2038C34.7039 20.2958 34.7514 20.3817 34.8442 20.5966C34.9453 20.2999 35.0133 20.1199 35.0711 19.9359C36.5604 15.0843 38.0518 10.2328 39.5308 5.37719C39.6319 5.0438 39.799 4.93745 40.1435 4.92108C42.526 4.80041 44.9065 4.66337 47.2869 4.50997C47.7016 4.48338 47.8191 4.61019 47.8191 5.01517C47.8088 14.0351 47.8109 23.0571 47.8129 32.077C47.8129 32.3613 47.8336 32.619 47.4107 32.6292C45.6449 32.6702 43.8813 32.7295 42.0413 32.7847V16.8065C41.9876 16.7942 41.934 16.782 41.8804 16.7697C41.8185 16.9394 41.7483 17.1072 41.6968 17.281C40.1291 22.3433 38.5593 27.4055 36.9998 32.4697C36.8905 32.8236 36.7316 32.9913 36.3232 32.9933C35.2939 32.9995 34.2645 33.0526 33.2373 33.1079C32.8784 33.1263 32.7009 33.0342 32.5813 32.6579C31.0445 27.7491 29.4871 22.8464 27.9318 17.9417C27.872 17.7514 27.7894 17.5674 27.6017 17.3874V17.8967C27.6017 22.8321 27.5935 27.7675 27.6141 32.7049C27.6162 33.2306 27.4594 33.3738 26.952 33.3656C25.3409 33.341 23.7299 33.3553 22.0714 33.3553V6.00102H22.0693Z" fill="white"/>
<path d="M165.928 30.5431C162.258 30.6637 158.614 30.7844 154.917 30.9051C154.905 31.1321 154.888 31.3142 154.888 31.4962C154.886 33.0281 154.886 34.5601 154.888 36.09C154.888 36.3395 154.9 36.5625 154.537 36.5727C152.495 36.632 150.455 36.7056 148.413 36.7731C148.347 36.7752 148.279 36.7568 148.172 36.7404C148.159 36.5911 148.137 36.4459 148.137 36.3007C148.137 30.4306 148.126 24.5584 148.149 18.6882C148.155 16.8904 148.803 15.3053 150.006 13.9492C152.215 11.458 154.42 8.96269 156.644 6.48375C156.802 6.3058 157.091 6.16468 157.328 6.14831C159.092 6.02764 160.856 5.9356 162.622 5.85788C162.857 5.84765 163.162 5.90287 163.325 6.04809C165.905 8.3675 168.488 10.6849 171.027 13.0472C172.172 14.1128 172.777 15.5139 172.822 17.0458C172.925 20.6314 172.933 24.2189 172.96 27.8064C172.979 30.359 172.956 32.9116 172.973 35.4641C172.975 35.8834 172.853 36.0143 172.424 36.0225C170.417 36.0593 168.408 36.1248 166.401 36.2004C166.042 36.2148 165.963 36.0839 165.965 35.7648C165.976 34.1653 165.969 32.5659 165.967 30.9664C165.967 30.8519 165.949 30.7353 165.93 30.541L165.928 30.5431ZM154.89 23.7955C158.622 23.6544 162.281 23.5173 165.965 23.3783C165.965 21.9936 165.971 20.6846 165.955 19.3755C165.955 19.2303 165.837 19.0625 165.732 18.9439C164.431 17.4958 163.125 16.0518 161.813 14.6139C161.359 14.1149 160.881 13.6383 160.352 13.0881C158.533 15.2828 156.769 17.4099 155.01 19.5432C154.94 19.627 154.894 19.7579 154.894 19.8684C154.886 21.1427 154.89 22.417 154.89 23.7955Z" fill="white"/>
<path d="M203.32 3.63257C203.32 3.87187 203.32 4.058 203.32 4.24208C203.32 11.9857 203.326 19.7314 203.316 27.475C203.312 30.3037 201.938 32.3818 199.585 33.8687C198.114 34.7994 196.478 35.1512 194.739 35.1962C191.323 35.2862 187.909 35.4109 184.497 35.5541C182.098 35.6543 179.967 35.0448 178.27 33.3042C176.981 31.9829 176.29 30.3835 176.287 28.5304C176.281 21.5518 176.285 14.573 176.287 7.59437C176.287 6.88055 176.306 6.16469 176.3 5.45087C176.3 5.17884 176.389 5.05612 176.681 5.03976C178.773 4.93135 180.863 4.80863 182.952 4.6941C183.084 4.68591 183.218 4.70432 183.408 4.71455V5.34042C183.408 12.7957 183.408 20.2509 183.408 27.7062C183.408 28.7309 183.664 28.9824 184.671 28.9518C187.193 28.872 189.714 28.7922 192.237 28.7125C193.06 28.6859 193.883 28.6491 194.708 28.6368C195.657 28.6225 196.074 28.2277 196.072 27.2623C196.068 25.5954 196.028 23.9284 196.028 22.2615C196.024 16.6634 196.028 11.0633 196.035 5.46519C196.035 5.31383 196.072 5.16043 196.078 5.00908C196.117 3.96391 196.117 3.98846 197.19 3.94346C199.092 3.86165 200.993 3.74302 202.895 3.64075C203.013 3.63461 203.131 3.64075 203.322 3.64075L203.32 3.63257Z" fill="white"/>
<path d="M96.047 13.7017C96.047 16.0088 96.049 18.2689 96.047 20.529C96.047 21.4821 96.0779 22.4373 96.0119 23.3863C95.8077 26.3786 94.0069 29.4998 90.9828 30.4734C90.1515 30.7413 89.2336 30.8027 88.3507 30.8415C84.8852 30.9929 81.4197 31.1074 77.9522 31.2158C76.8754 31.2485 75.7987 31.2219 74.6662 31.2219C74.66 31.1217 74.6394 30.9581 74.6414 30.7924C74.6476 28.921 74.6703 27.0474 74.6559 25.1759C74.6517 24.7321 74.8374 24.636 75.2314 24.6217C77.7026 24.5337 80.1718 24.4335 82.643 24.3292C84.7532 24.2392 86.8614 24.1471 88.9696 24.0387C89.5657 24.0081 89.8462 23.7299 89.8669 23.147C89.8958 22.382 89.8854 21.615 89.8731 20.8501C89.8648 20.3756 89.5657 20.1465 89.1181 20.1076C87.1522 19.9399 85.1843 19.7865 83.2185 19.6208C81.0134 19.4347 78.8083 19.2404 76.6031 19.0502C76.0049 18.9991 75.4067 18.9336 74.8064 18.905C74.5032 18.8907 74.3877 18.7966 74.3898 18.4836C74.4063 15.7265 74.3609 12.9674 74.4269 10.2103C74.4826 7.91951 75.2685 5.88236 76.9744 4.26655C78.0739 3.22547 79.3714 2.57301 80.9144 2.47688C83.759 2.30098 86.6035 2.13122 89.4481 1.95737C91.2139 1.85101 92.9776 1.75079 94.7433 1.63011C95.1806 1.59943 95.3456 1.70579 95.3394 2.17826C95.3126 3.96588 95.3188 5.7535 95.3353 7.54112C95.3395 7.94405 95.2363 8.10768 94.7969 8.12813C92.6537 8.22426 90.5125 8.35107 88.3693 8.4697C86.158 8.59242 83.9467 8.71105 81.7374 8.844C80.6524 8.90945 80.4564 9.13444 80.4564 10.2266C80.4564 10.7543 80.442 11.282 80.4626 11.8097C80.4853 12.4151 80.7535 12.6626 81.3537 12.7035C84.8811 12.9388 88.4085 13.1801 91.9379 13.4153C93.1364 13.4951 94.3369 13.5564 95.5354 13.6321C95.719 13.6444 95.9005 13.6812 96.0511 13.7017H96.047Z" fill="white"/>
<path d="M120.231 37.7221C120.219 37.4705 120.198 37.2537 120.198 37.039C120.198 33.1631 120.267 29.2851 120.165 25.4133C120.122 23.7218 120.498 22.3105 121.479 20.9115C123.173 18.5 124.695 15.9699 126.294 13.493C126.391 13.3437 126.506 13.2067 126.727 13.1024V19.856C130.607 19.6883 134.421 19.5227 138.316 19.3549C138.316 19.134 138.316 18.9377 138.316 18.7393C138.316 15.1129 138.316 11.4886 138.316 7.86223C138.316 6.98478 138.26 7.14023 139.1 7.09727C140.917 7.00523 142.73 6.8866 144.548 6.78025C144.698 6.77207 144.851 6.78025 145.092 6.78025C145.092 7.3468 145.092 7.88473 145.092 8.4206C145.096 13.2701 145.1 18.1196 145.107 22.9691C145.113 26.5894 145.125 30.2116 145.127 33.8319C145.127 34.7175 145.117 35.6011 145.078 36.4847C145.072 36.6258 144.894 36.8774 144.787 36.8815C142.662 36.9756 140.538 37.041 138.341 37.1167V26.7223C137.66 26.7223 137.049 26.7059 136.441 26.7244C134.279 26.7959 132.117 26.8798 129.958 26.9555C129.083 26.9862 128.208 27.0271 127.334 27.0352C126.878 27.0393 126.731 27.2009 126.735 27.6693C126.758 30.7659 126.74 33.8646 126.756 36.9633C126.758 37.3948 126.661 37.5482 126.191 37.5544C124.39 37.583 122.587 37.6628 120.786 37.7221C120.619 37.7282 120.45 37.7221 120.234 37.7221H120.231Z" fill="white"/>
<path d="M56.4206 32.2753C54.4053 32.353 52.458 32.4267 50.4633 32.5023C50.4489 32.3019 50.4282 32.1383 50.4282 31.9746C50.4282 26.4768 50.4282 20.9789 50.4365 15.4811C50.4385 13.7528 50.9769 12.2372 52.1651 10.9241C54.1804 8.69267 56.1318 6.40599 58.1286 4.15817C58.2854 3.98227 58.57 3.84319 58.8052 3.82478C60.311 3.70615 61.8169 3.61615 63.3248 3.54252C63.5166 3.5323 63.7724 3.62434 63.9044 3.75933C66.025 5.91715 68.162 8.05861 70.2248 10.2717C71.3779 11.5091 71.7925 13.086 71.7946 14.7489C71.807 20.2467 71.7987 25.7446 71.8008 31.2424C71.8008 31.5083 71.8193 31.7599 71.4295 31.7701C69.6431 31.811 67.8588 31.8621 66.0745 31.9071C66.027 31.9071 65.9796 31.8826 65.8661 31.854V26.3622C64.5851 26.3622 63.3722 26.3357 62.1614 26.3684C60.5668 26.4113 58.9723 26.5095 57.3778 26.5627C56.4206 26.5954 56.4206 26.577 56.4206 27.5444C56.4206 29.0928 56.4206 30.639 56.4206 32.2794V32.2753ZM56.4268 19.8622C56.596 19.8765 56.6826 19.8929 56.7672 19.8909C59.6819 19.764 62.5945 19.6311 65.5093 19.5125C65.8723 19.4982 65.8703 19.2834 65.8703 19.0339C65.8703 17.9457 65.893 16.8556 65.8558 15.7675C65.8455 15.4729 65.7259 15.1314 65.5381 14.9023C64.1561 13.2108 62.7451 11.5418 61.3383 9.86873C61.2785 9.79715 61.1898 9.75215 61.1032 9.6867C61.0227 9.77465 60.9608 9.83192 60.9093 9.89941C59.653 11.5377 58.3947 13.174 57.1467 14.8164C56.8909 15.1518 56.4846 15.5016 56.4619 15.8616C56.3794 17.1787 56.4289 18.5041 56.4289 19.8643L56.4268 19.8622Z" fill="white"/>
<path d="M99.2588 30.6779V1.41537C101.373 1.29469 103.454 1.17402 105.606 1.0513V1.7099C105.606 5.13174 105.612 8.55358 105.598 11.9734C105.596 12.4213 105.705 12.544 106.179 12.5154C108.424 12.3763 110.67 12.2843 112.917 12.1697C114.183 12.1063 115.448 12.0327 116.766 11.9591V0.376341C118.958 0.24953 121.102 0.124765 123.274 0C123.286 0.247485 123.301 0.396794 123.301 0.546103C123.301 4.92107 123.305 9.29603 123.292 13.6689C123.292 13.9083 123.228 14.1823 123.101 14.3828C121.108 17.5183 119.099 20.6456 117.094 23.7729C117.034 23.867 116.955 23.9529 116.807 24.141V19.1852C116.452 19.2057 116.153 19.2241 115.854 19.2363C113.366 19.3407 110.881 19.445 108.393 19.5472C107.673 19.5779 106.951 19.625 106.231 19.625C105.761 19.625 105.587 19.7661 105.592 20.2692C105.616 23.5029 105.6 26.7366 105.61 29.9723C105.61 30.3425 105.53 30.547 105.111 30.5552C103.24 30.5941 101.369 30.6493 99.4981 30.6963C99.4321 30.6963 99.3661 30.6861 99.2588 30.6779Z" fill="white"/>
<path d="M0.0181025 22.6234C0.0181025 20.1157 0.0634839 17.649 0.00366294 15.1823C-0.0437811 13.18 0.364651 11.333 1.52188 9.68041C2.67085 8.038 4.20763 7.06443 6.27867 6.96421C8.90047 6.8374 11.5202 6.65332 14.142 6.49173C15.5633 6.40379 16.9845 6.32197 18.4058 6.21357C18.6987 6.19107 18.7792 6.28925 18.7771 6.54082C18.7668 8.42866 18.7503 10.3165 18.7503 12.2043C18.7503 12.55 18.5626 12.5684 18.2923 12.5827C15.98 12.7075 13.6655 12.8404 11.3531 12.9775C9.69258 13.0757 8.03204 13.1881 6.36943 13.2884C5.67014 13.3313 5.43499 13.5665 5.42673 14.2763C5.42055 14.8551 5.41848 15.4339 5.42673 16.0128C5.43499 16.6448 5.67221 16.8984 6.3323 16.9475C7.61535 17.0416 8.90253 17.1111 10.1856 17.197C12.4629 17.3484 14.7402 17.5058 17.0175 17.6613C17.7189 17.7083 18.4202 17.7758 19.1236 17.7983C19.4393 17.8086 19.5424 17.9149 19.5403 18.2176C19.5341 20.7028 19.5197 23.1879 19.5486 25.673C19.5692 27.4115 19.2577 29.058 18.3398 30.5552C17.0196 32.7068 15.1487 33.8481 12.5351 33.8788C9.20576 33.9177 5.87849 34.1018 2.55121 34.2245C1.91793 34.249 1.28259 34.2797 0.649316 34.3206C0.374965 34.337 0.228507 34.2572 0.23057 33.9565C0.234696 32.1014 0.236758 30.2463 0.23057 28.3912C0.23057 28.0946 0.360526 28.0271 0.636939 28.0169C3.74144 27.8901 6.84593 27.751 9.95043 27.616C10.9117 27.5751 11.8709 27.5383 12.8321 27.4953C13.5851 27.4626 13.8677 27.2233 13.911 26.4952C13.9481 25.8673 13.9357 25.2353 13.9151 24.6073C13.8986 24.0694 13.55 23.8301 13.0426 23.7851C12.0173 23.6951 10.9921 23.6133 9.96487 23.5233C8.22181 23.372 6.47669 23.2206 4.73364 23.0672C3.24637 22.9363 1.7591 22.8034 0.273888 22.6704C0.205816 22.6643 0.139807 22.6479 0.0201653 22.6275L0.0181025 22.6234Z" fill="white"/>
</svg>
