<svg width="52" height="51" viewBox="0 0 52 51" fill="none" xmlns="http://www.w3.org/2000/svg">
<path d="M26 17.85C23.9313 17.85 21.9473 18.656 20.4846 20.0906C19.0218 21.5253 18.2 23.4711 18.2 25.5C18.2 27.5289 19.0218 29.4747 20.4846 30.9094C21.9473 32.344 23.9313 33.15 26 33.15C28.0687 33.15 30.0526 32.344 31.5154 30.9094C32.9782 29.4747 33.8 27.5289 33.8 25.5C33.8 23.4711 32.9782 21.5253 31.5154 20.0906C30.0526 18.656 28.0687 17.85 26 17.85ZM26 12.75C29.4478 12.75 32.7544 14.0933 35.1924 16.4844C37.6304 18.8755 39 22.1185 39 25.5C39 28.8815 37.6304 32.1245 35.1924 34.5156C32.7544 36.9067 29.4478 38.25 26 38.25C22.5522 38.25 19.2456 36.9067 16.8076 34.5156C14.3696 32.1245 13 28.8815 13 25.5C13 22.1185 14.3696 18.8755 16.8076 16.4844C19.2456 14.0933 22.5522 12.75 26 12.75ZM42.9 12.1125C42.9 12.9579 42.5576 13.7686 41.9481 14.3664C41.3386 14.9642 40.512 15.3 39.65 15.3C38.788 15.3 37.9614 14.9642 37.3519 14.3664C36.7424 13.7686 36.4 12.9579 36.4 12.1125C36.4 11.2671 36.7424 10.4564 37.3519 9.8586C37.9614 9.26083 38.788 8.925 39.65 8.925C40.512 8.925 41.3386 9.26083 41.9481 9.8586C42.5576 10.4564 42.9 11.2671 42.9 12.1125ZM26 5.1C19.5676 5.1 18.5172 5.11785 15.5246 5.2479C13.4862 5.34225 12.1186 5.61 10.8498 6.0945C9.788 6.47684 8.82807 7.08967 8.0418 7.88715C7.22802 8.65827 6.60232 9.59969 6.2114 10.6411C5.7174 11.8906 5.4444 13.2294 5.3508 15.2261C5.2156 18.0413 5.1974 19.0255 5.1974 25.5C5.1974 31.8112 5.2156 32.8389 5.3482 35.7739C5.4444 37.7706 5.7174 39.1144 6.2088 40.3563C6.6508 41.4655 7.1708 42.2637 8.034 43.1103C8.9102 43.9671 9.724 44.4796 10.842 44.9029C12.1264 45.39 13.494 45.6603 15.522 45.7521C18.3924 45.8847 19.396 45.9 25.9974 45.9C32.4324 45.9 33.4802 45.8821 36.4728 45.7521C38.506 45.6577 39.8736 45.39 41.145 44.9081C42.2058 44.5238 43.1654 43.9113 43.953 43.1154C44.8292 42.2586 45.3518 41.4604 45.7834 40.3614C46.2774 39.1068 46.553 37.7655 46.6466 35.7714C46.7818 32.9587 46.7974 31.9719 46.7974 25.5C46.7974 19.1913 46.7792 18.1611 46.6466 15.2261C46.5504 13.2319 46.2748 11.8855 45.7834 10.6411C45.3915 9.60079 44.7669 8.65975 43.9556 7.88715C43.1697 7.08861 42.2097 6.47487 41.1476 6.09195C39.8736 5.60745 38.506 5.3397 36.4728 5.2479C33.605 5.1153 32.604 5.1 26 5.1ZM26 0C33.0642 0 33.9456 0.0254999 36.7198 0.153C39.4862 0.2805 41.3738 0.70635 43.03 1.33875C44.746 1.98645 46.1916 2.86365 47.6372 4.2789C48.9593 5.55363 49.9823 7.0956 50.635 8.7975C51.2772 10.4218 51.714 12.2731 51.844 14.9889C51.9662 17.7072 52 18.5716 52 25.5C52 32.4283 51.974 33.2928 51.844 36.0111C51.714 38.7268 51.2772 40.5756 50.635 42.2025C49.9841 43.9053 48.9608 45.4476 47.6372 46.7211C46.3371 48.0173 44.765 49.0206 43.03 49.6613C41.3738 50.2911 39.4862 50.7195 36.7198 50.847C33.9456 50.9669 33.0642 51 26 51C18.9358 51 18.0544 50.9745 15.2802 50.847C12.5138 50.7195 10.6288 50.2911 8.97 49.6613C7.23405 49.0224 5.66157 48.0189 4.3628 46.7211C3.04052 45.4465 2.0175 43.9045 1.365 42.2025C0.7202 40.5781 0.286 38.7268 0.156 36.0111C0.0312005 33.2928 0 32.4283 0 25.5C0 18.5716 0.0260005 17.7072 0.156 14.9889C0.286 12.2706 0.7202 10.4244 1.365 8.7975C2.01561 7.09456 3.03889 5.55217 4.3628 4.2789C5.66194 2.98154 7.23431 1.97811 8.97 1.33875C10.6262 0.70635 12.5112 0.2805 15.2802 0.153C18.0544 0.0331499 18.9358 0 26 0Z" fill="#F0F0F0"/>
</svg>
