<svg width="121" height="33" viewBox="0 0 121 33" fill="none" xmlns="http://www.w3.org/2000/svg">
<path opacity="0.4" d="M114.534 15.7125L121 33C119.105 32.7375 117.172 32.3625 115.24 32.0625L111.598 22.5L107.845 31.275C106.024 30.975 104.203 30.8625 102.345 30.6375L108.922 15.525L102.976 0H108.514L111.858 8.6625L115.426 0H121L114.534 15.7125ZM98.6284 0H93.6115V29.9625C95.2466 30.075 96.9561 30.15 98.6284 30.3375V0ZM89.3007 29.625C84.7297 29.325 80.1588 29.025 75.5135 28.95V0H80.6047V24.075C83.5405 24.15 86.4763 24.375 89.3007 24.525V29.625ZM70.0507 11.7375V16.875H63.0642V28.6125H58.0101V0H72.3176V5.1375H63.0642V11.7H70.0507V11.7375ZM49.4257 5.1375V28.875C47.7162 28.875 45.9696 28.875 44.2973 28.95V5.1375H39.0203V0H54.7399V5.1375H49.4257ZM33.5203 17.1375C31.2905 17.1375 28.6149 17.1375 26.7196 17.25V24.9C29.7297 24.675 32.7027 24.45 35.75 24.3375V29.2875L21.6284 30.4125V0H35.75V5.1375H26.7196V12.075C28.6892 12.075 31.7365 11.9625 33.5203 11.9625V17.1375ZM5.2027 14.25V32.25C3.38176 32.475 1.74662 32.7375 0 33V0H4.86824L11.5203 18.75V0H16.6486V30.8625C14.8277 31.1625 13.0068 31.275 11.0743 31.5375L5.2027 14.25Z" fill="#232323"/>
</svg>
