<svg width="235" height="38" viewBox="0 0 235 38" fill="none" xmlns="http://www.w3.org/2000/svg">
<path d="M207.176 21.8897C207.176 21.1391 207.176 20.4131 207.176 19.6849C207.18 17.116 207.151 14.545 207.195 11.9761C207.261 8.03881 209.678 4.45334 213.393 3.45317C214.553 3.14024 215.794 3.08501 217.005 3.00729C220.002 2.81503 223.004 2.68208 226.003 2.5205C228.179 2.40392 230.356 2.27711 232.532 2.15644C232.682 2.14826 232.833 2.15644 233.015 2.15644C233.033 2.29961 233.062 2.41415 233.062 2.52664C233.064 4.79082 233.062 7.055 233.068 9.31918C233.068 9.62394 233.006 9.77734 232.649 9.7937C229.219 9.94096 225.791 10.1087 222.36 10.258C220.147 10.3562 217.934 10.4318 215.722 10.5218C215.025 10.5505 214.647 10.9248 214.633 11.614C214.619 12.3974 214.623 13.1808 214.633 13.9621C214.639 14.543 214.876 14.8579 215.464 14.9438C216.176 15.0461 216.898 15.0891 217.616 15.1341C220.374 15.31 223.132 15.4715 225.89 15.6474C228.425 15.807 230.96 15.9747 233.495 16.1424C233.664 16.1526 233.833 16.1915 234.056 16.2263V16.8358C234.056 20.1206 234.05 23.4074 234.058 26.6922C234.065 28.9093 233.068 30.6478 231.43 32.0591C229.553 33.6749 227.307 34.2394 224.86 34.2906C221.205 34.3683 217.55 34.5176 213.895 34.6424C211.836 34.714 209.779 34.7978 207.677 34.8776V28.1709C208.942 28.128 210.19 28.0891 211.436 28.0441C214.885 27.9255 218.332 27.8028 221.781 27.6841C222.948 27.6432 224.114 27.6064 225.281 27.5696C225.906 27.5512 226.31 27.1769 226.325 26.5572C226.341 25.7922 226.325 25.0252 226.331 24.2603C226.335 23.7469 226.073 23.4544 225.58 23.391C224.883 23.301 224.184 23.2315 223.482 23.1762C219.685 22.8797 215.885 22.5933 212.088 22.2967C210.499 22.172 208.913 22.0329 207.178 21.8877L207.176 21.8897Z" fill="black"/>
<path d="M22.0693 6.13859C23.6989 6.04451 25.2914 5.95451 26.8818 5.86247C27.8245 5.80725 28.7672 5.75407 29.7078 5.68044C30.0379 5.65385 30.1802 5.74998 30.2813 6.08337C31.7356 10.8388 33.2063 15.5901 34.675 20.3414C34.7039 20.4334 34.7514 20.5193 34.8442 20.7341C34.9453 20.4375 35.0133 20.2575 35.0711 20.0734C36.5604 15.2219 38.0518 10.3704 39.5308 5.51476C39.6319 5.18138 39.799 5.07502 40.1435 5.05866C42.526 4.93798 44.9065 4.80094 47.2869 4.64754C47.7016 4.62096 47.8191 4.74777 47.8191 5.15274C47.8088 14.1727 47.8109 23.1947 47.8129 32.2146C47.8129 32.4989 47.8336 32.7566 47.4107 32.7668C45.6449 32.8077 43.8813 32.867 42.0413 32.9223V16.9441C41.9876 16.9318 41.934 16.9195 41.8804 16.9073C41.8185 17.077 41.7483 17.2447 41.6968 17.4186C40.1291 22.4809 38.5593 27.543 36.9998 32.6073C36.8905 32.9611 36.7316 33.1288 36.3232 33.1309C35.2939 33.137 34.2645 33.1902 33.2373 33.2454C32.8784 33.2638 32.7009 33.1718 32.5813 32.7955C31.0445 27.8867 29.4871 22.984 27.9318 18.0792C27.872 17.889 27.7894 17.7049 27.6017 17.525V18.0342C27.6017 22.9697 27.5935 27.9051 27.6141 32.8425C27.6162 33.3681 27.4594 33.5113 26.952 33.5031C25.3409 33.4786 23.7299 33.4929 22.0714 33.4929V6.13859H22.0693Z" fill="black"/>
<path d="M165.928 30.6806C162.258 30.8012 158.614 30.9219 154.917 31.0426C154.905 31.2696 154.888 31.4517 154.888 31.6337C154.886 33.1657 154.886 34.6976 154.888 36.2275C154.888 36.477 154.9 36.7 154.537 36.7102C152.495 36.7695 150.455 36.8432 148.413 36.9107C148.347 36.9127 148.279 36.8943 148.172 36.8779C148.159 36.7286 148.137 36.5834 148.137 36.4382C148.137 30.5681 148.126 24.6959 148.149 18.8258C148.155 17.0279 148.803 15.4428 150.006 14.0867C152.215 11.5955 154.42 9.1002 156.644 6.62126C156.802 6.44332 157.091 6.30219 157.328 6.28583C159.092 6.16515 160.856 6.07311 162.622 5.99539C162.857 5.98516 163.162 6.04039 163.325 6.1856C165.905 8.50501 168.488 10.8224 171.027 13.1847C172.172 14.2503 172.777 15.6514 172.822 17.1834C172.925 20.7689 172.933 24.3564 172.96 27.9439C172.979 30.4965 172.956 33.0491 172.973 35.6016C172.975 36.0209 172.853 36.1518 172.424 36.16C170.417 36.1968 168.408 36.2623 166.401 36.338C166.042 36.3523 165.963 36.2214 165.965 35.9023C165.976 34.3029 165.969 32.7034 165.967 31.104C165.967 30.9894 165.949 30.8728 165.93 30.6785L165.928 30.6806ZM154.89 23.933C158.622 23.7919 162.281 23.6549 165.965 23.5158C165.965 22.1311 165.971 20.8221 165.955 19.513C165.955 19.3678 165.837 19.2 165.732 19.0814C164.431 17.6333 163.125 16.1893 161.813 14.7515C161.359 14.2524 160.881 13.7758 160.352 13.2256C158.533 15.4203 156.769 17.5474 155.01 19.6807C154.94 19.7646 154.894 19.8955 154.894 20.0059C154.886 21.2802 154.89 22.5545 154.89 23.933Z" fill="black"/>
<path d="M203.32 3.77008C203.32 4.00938 203.32 4.19551 203.32 4.37959C203.32 12.1232 203.326 19.8689 203.316 27.6125C203.312 30.4412 201.938 32.5193 199.585 34.0063C198.114 34.9369 196.478 35.2887 194.739 35.3337C191.323 35.4237 187.909 35.5484 184.497 35.6916C182.098 35.7918 179.967 35.1823 178.27 33.4417C176.981 32.1205 176.29 30.521 176.287 28.6679C176.281 21.6893 176.285 14.7106 176.287 7.73189C176.287 7.01807 176.306 6.3022 176.3 5.58838C176.3 5.31635 176.389 5.19363 176.681 5.17727C178.773 5.06887 180.863 4.94615 182.952 4.83161C183.084 4.82343 183.218 4.84183 183.408 4.85206V5.47793C183.408 12.9332 183.408 20.3884 183.408 27.8437C183.408 28.8684 183.664 29.12 184.671 29.0893C187.193 29.0095 189.714 28.9297 192.237 28.85C193.06 28.8234 193.883 28.7866 194.708 28.7743C195.657 28.76 196.074 28.3652 196.072 27.3998C196.068 25.7329 196.028 24.0659 196.028 22.399C196.024 16.8009 196.028 11.2008 196.035 5.6027C196.035 5.45134 196.072 5.29794 196.078 5.14659C196.117 4.10142 196.117 4.12597 197.19 4.08097C199.092 3.99916 200.993 3.88053 202.895 3.77826C203.013 3.77213 203.131 3.77826 203.322 3.77826L203.32 3.77008Z" fill="black"/>
<path d="M96.047 13.8393C96.047 16.1465 96.049 18.4066 96.047 20.6666C96.047 21.6197 96.0779 22.5749 96.0119 23.5239C95.8077 26.5163 94.0069 29.6374 90.9828 30.611C90.1515 30.879 89.2336 30.9403 88.3507 30.9792C84.8852 31.1305 81.4197 31.2451 77.9522 31.3535C76.8754 31.3862 75.7987 31.3596 74.6662 31.3596C74.66 31.2594 74.6394 31.0958 74.6414 30.9301C74.6476 29.0586 74.6703 27.1851 74.6559 25.3136C74.6517 24.8698 74.8374 24.7736 75.2314 24.7593C77.7026 24.6714 80.1718 24.5712 82.643 24.4668C84.7532 24.3769 86.8614 24.2848 88.9696 24.1764C89.5657 24.1457 89.8462 23.8676 89.8669 23.2846C89.8958 22.5197 89.8854 21.7527 89.8731 20.9877C89.8648 20.5132 89.5657 20.2842 89.1181 20.2453C87.1522 20.0776 85.1843 19.9242 83.2185 19.7585C81.0134 19.5724 78.8083 19.3781 76.6031 19.1879C76.0049 19.1367 75.4067 19.0713 74.8064 19.0426C74.5032 19.0283 74.3877 18.9342 74.3898 18.6213C74.4063 15.8642 74.3609 13.1051 74.4269 10.3479C74.4826 8.05717 75.2685 6.02002 76.9744 4.40421C78.0739 3.36314 79.3714 2.71068 80.9144 2.61455C83.759 2.43865 86.6035 2.26889 89.4481 2.09503C91.2139 1.98867 92.9776 1.88845 94.7433 1.76778C95.1806 1.7371 95.3456 1.84345 95.3394 2.31593C95.3126 4.10355 95.3188 5.89117 95.3353 7.67879C95.3395 8.08172 95.2363 8.24534 94.7969 8.2658C92.6537 8.36193 90.5125 8.48874 88.3693 8.60737C86.158 8.73009 83.9467 8.84872 81.7374 8.98166C80.6524 9.04711 80.4564 9.2721 80.4564 10.3643C80.4564 10.892 80.442 11.4197 80.4626 11.9474C80.4853 12.5528 80.7535 12.8003 81.3537 12.8412C84.8811 13.0764 88.4085 13.3178 91.9379 13.553C93.1364 13.6327 94.3369 13.6941 95.5354 13.7698C95.719 13.7821 95.9005 13.8189 96.0511 13.8393H96.047Z" fill="black"/>
<path d="M120.231 37.8597C120.219 37.6081 120.198 37.3913 120.198 37.1765C120.198 33.3006 120.267 29.4227 120.165 25.5509C120.122 23.8594 120.498 22.4481 121.479 21.0491C123.173 18.6376 124.695 16.1075 126.294 13.6306C126.391 13.4813 126.506 13.3443 126.727 13.2399V19.9936C130.607 19.8259 134.421 19.6602 138.316 19.4925C138.316 19.2716 138.316 19.0753 138.316 18.8769C138.316 15.2505 138.316 11.6262 138.316 7.9998C138.316 7.12235 138.26 7.2778 139.1 7.23485C140.917 7.14281 142.73 7.02418 144.548 6.91782C144.698 6.90964 144.851 6.91782 145.092 6.91782C145.092 7.48438 145.092 8.0223 145.092 8.55818C145.096 13.4077 145.1 18.2571 145.107 23.1067C145.113 26.7269 145.125 30.3492 145.127 33.9695C145.127 34.8551 145.117 35.7387 145.078 36.6222C145.072 36.7634 144.894 37.015 144.787 37.019C142.662 37.1131 140.538 37.1786 138.341 37.2543V26.8599C137.66 26.8599 137.049 26.8435 136.441 26.8619C134.279 26.9335 132.117 27.0174 129.958 27.093C129.083 27.1237 128.208 27.1646 127.334 27.1728C126.878 27.1769 126.731 27.3385 126.735 27.8069C126.758 30.9035 126.74 34.0022 126.756 37.1009C126.758 37.5324 126.661 37.6858 126.191 37.692C124.39 37.7206 122.587 37.8004 120.786 37.8597C120.619 37.8658 120.45 37.8597 120.234 37.8597H120.231Z" fill="black"/>
<path d="M56.4206 32.413C54.4053 32.4907 52.458 32.5643 50.4633 32.64C50.4489 32.4396 50.4282 32.2759 50.4282 32.1123C50.4282 26.6145 50.4282 21.1166 50.4365 15.6188C50.4385 13.8905 50.9769 12.3749 52.1651 11.0618C54.1804 8.83033 56.1318 6.54365 58.1286 4.29583C58.2854 4.11993 58.57 3.98085 58.8052 3.96244C60.311 3.84381 61.8169 3.75382 63.3248 3.68019C63.5166 3.66996 63.7724 3.762 63.9044 3.89699C66.025 6.05482 68.162 8.19628 70.2248 10.4093C71.3779 11.6468 71.7925 13.2237 71.7946 14.8866C71.807 20.3844 71.7987 25.8822 71.8008 31.3801C71.8008 31.646 71.8193 31.8975 71.4295 31.9078C69.6431 31.9487 67.8588 31.9998 66.0745 32.0448C66.027 32.0448 65.9796 32.0203 65.8661 31.9916V26.4999C64.5851 26.4999 63.3722 26.4733 62.1614 26.506C60.5668 26.549 58.9723 26.6472 57.3778 26.7004C56.4206 26.7331 56.4206 26.7147 56.4206 27.6821C56.4206 29.2304 56.4206 30.7767 56.4206 32.4171V32.413ZM56.4268 19.9999C56.596 20.0142 56.6826 20.0306 56.7672 20.0285C59.6819 19.9017 62.5945 19.7688 65.5093 19.6501C65.8723 19.6358 65.8703 19.4211 65.8703 19.1715C65.8703 18.0834 65.893 16.9932 65.8558 15.9051C65.8455 15.6106 65.7259 15.269 65.5381 15.04C64.1561 13.3485 62.7451 11.6795 61.3383 10.0064C61.2785 9.93481 61.1898 9.88981 61.1032 9.82436C61.0227 9.91231 60.9608 9.96958 60.9093 10.0371C59.653 11.6754 58.3947 13.3117 57.1467 14.9541C56.8909 15.2895 56.4846 15.6392 56.4619 15.9992C56.3794 17.3164 56.4289 18.6418 56.4289 20.0019L56.4268 19.9999Z" fill="black"/>
<path d="M99.2588 30.8156V1.553C101.373 1.43233 103.454 1.31165 105.606 1.18893V1.84753C105.606 5.26937 105.612 8.69121 105.598 12.111C105.596 12.5589 105.705 12.6817 106.179 12.653C108.424 12.5139 110.67 12.4219 112.917 12.3074C114.183 12.2439 115.448 12.1703 116.766 12.0967V0.513975C118.958 0.387165 121.102 0.262399 123.274 0.137634C123.286 0.385119 123.301 0.534429 123.301 0.683738C123.301 5.0587 123.305 9.43367 123.292 13.8066C123.292 14.0459 123.228 14.32 123.101 14.5204C121.108 17.6559 119.099 20.7832 117.094 23.9105C117.034 24.0046 116.955 24.0905 116.807 24.2787V19.3228C116.452 19.3433 116.153 19.3617 115.854 19.374C113.366 19.4783 110.881 19.5826 108.393 19.6849C107.673 19.7155 106.951 19.7626 106.231 19.7626C105.761 19.7626 105.587 19.9037 105.592 20.4069C105.616 23.6405 105.6 26.8742 105.61 30.1099C105.61 30.4801 105.53 30.6847 105.111 30.6928C103.24 30.7317 101.369 30.7869 99.4981 30.834C99.4321 30.834 99.3661 30.8237 99.2588 30.8156Z" fill="black"/>
<path d="M0.0181025 22.7611C0.0181025 20.2534 0.0634839 17.7867 0.00366294 15.32C-0.0437811 13.3177 0.364651 11.4707 1.52188 9.8181C2.67085 8.1757 4.20763 7.20212 6.27867 7.1019C8.90047 6.97509 11.5202 6.79101 14.142 6.62943C15.5633 6.54148 16.9845 6.45967 18.4058 6.35126C18.6987 6.32877 18.7792 6.42694 18.7771 6.67852C18.7668 8.56636 18.7503 10.4542 18.7503 12.342C18.7503 12.6877 18.5626 12.7061 18.2923 12.7204C15.98 12.8452 13.6655 12.9781 11.3531 13.1152C9.69258 13.2134 8.03204 13.3258 6.36943 13.4261C5.67014 13.469 5.43499 13.7042 5.42673 14.414C5.42055 14.9928 5.41848 15.5716 5.42673 16.1504C5.43499 16.7825 5.67221 17.0361 6.3323 17.0852C7.61535 17.1792 8.90253 17.2488 10.1856 17.3347C12.4629 17.486 14.7402 17.6435 17.0175 17.799C17.7189 17.846 18.4202 17.9135 19.1236 17.936C19.4393 17.9462 19.5424 18.0526 19.5403 18.3553C19.5341 20.8405 19.5197 23.3256 19.5486 25.8106C19.5692 27.5492 19.2577 29.1957 18.3398 30.6929C17.0196 32.8445 15.1487 33.9858 12.5351 34.0165C9.20576 34.0554 5.87849 34.2395 2.55121 34.3622C1.91793 34.3867 1.28259 34.4174 0.649316 34.4583C0.374965 34.4747 0.228507 34.3949 0.23057 34.0942C0.234696 32.2391 0.236758 30.384 0.23057 28.5289C0.23057 28.2323 0.360526 28.1648 0.636939 28.1546C3.74144 28.0278 6.84593 27.8887 9.95043 27.7537C10.9117 27.7128 11.8709 27.676 12.8321 27.633C13.5851 27.6003 13.8677 27.361 13.911 26.6329C13.9481 26.005 13.9357 25.3729 13.9151 24.745C13.8986 24.2071 13.55 23.9678 13.0426 23.9228C12.0173 23.8328 10.9921 23.751 9.96487 23.661C8.22181 23.5097 6.47669 23.3583 4.73364 23.2049C3.24637 23.074 1.7591 22.941 0.273888 22.8081C0.205816 22.802 0.139807 22.7856 0.0201653 22.7652L0.0181025 22.7611Z" fill="black"/>
</svg>
