<svg width="126" height="22" viewBox="0 0 126 22" fill="none" xmlns="http://www.w3.org/2000/svg">
<path d="M44.8812 22C40.32 22 36.0864 20.65 33.264 18.125C31.2228 16.3 30.0636 13.7 30.0888 10.975C30.0888 8.275 31.2228 5.675 33.264 3.85C35.8848 1.5 40.5216 0 44.8812 0C49.7196 0 53.5752 1.2 56.5236 3.875C58.5396 5.7 59.6736 8.3 59.6484 11C59.6232 13.7 58.5144 16.275 56.5236 18.15C53.7768 20.675 49.4676 22 44.8812 22V19.1C47.3004 19.1 49.5432 18.275 51.1308 16.725C52.7184 15.175 53.424 13.3 53.424 10.975C53.424 8.75 52.6428 6.7 51.1308 5.225C49.5936 3.7 47.2752 2.85 44.8812 2.85C42.4872 2.85 40.194 3.7 38.6316 5.225C37.1448 6.7 36.3636 8.775 36.3636 10.975C36.3132 13.125 37.1448 15.175 38.6316 16.725C40.1688 18.25 42.4872 19.1 44.8812 19.1V22ZM11.5416 0C9.0972 0 6.3252 0.45 3.9816 1.5C1.7892 2.475 0 4.025 0 6.6C0 7.95 0.504 9.275 1.4616 10.25C2.0916 10.825 3.1248 11.825 5.7708 12.4C6.9552 12.65 9.5004 13.05 12.0456 13.325C14.5908 13.6 17.0352 13.825 18.0432 14.1C18.8496 14.3 20.1852 14.575 20.1852 16.075C20.1852 17.575 18.774 18.025 18.522 18.125C18.27 18.225 16.5816 19 13.5072 19C11.4912 18.95 9.4752 18.6 7.5348 17.975C6.4008 17.575 5.1912 17.025 4.0824 15.675C3.6288 15.05 3.3768 14.275 3.3516 13.5H0.5796V21.2H3.654V20.15C3.654 19.9 3.8556 19.725 4.0824 19.7C4.158 19.7 4.2336 19.725 4.3092 19.775C5.7708 20.4 7.2576 20.875 8.82 21.225C10.4328 21.55 11.4912 21.8 13.482 21.8C15.5988 21.85 17.7156 21.55 19.7568 20.925C21.0924 20.55 22.3776 19.95 23.4864 19.1C24.7464 18.125 25.5024 16.625 25.4772 15.05C25.4772 13.575 24.8976 12.125 23.8644 11.075C23.2848 10.525 22.6044 10.05 21.8736 9.725C21.0924 9.375 20.2608 9.075 19.4292 8.875C17.8416 8.475 14.238 8 12.5244 7.825C10.7352 7.65 7.6104 7.375 6.3504 7C5.9724 6.875 5.1912 6.525 5.1912 5.625C5.1912 5 5.544 4.45 6.2496 4.025C7.3584 3.325 9.6012 2.9 11.9196 2.9C14.1624 2.875 16.4052 3.3 18.4968 4.175C19.0512 4.425 19.5804 4.725 20.0592 5.1C20.8404 5.75 21.3696 6.65 21.5964 7.65H24.0912V0.975H21.3192V1.75C21.3192 2 21.0672 2.325 20.5632 2.05C19.3536 1.425 15.8256 0.025 11.5416 0ZM72.3744 1.225L85.932 13.35L85.806 5.175C85.7808 4.1 85.6044 3.65 84.42 3.65H81.8748V1.225H93.4668V3.675H90.972C89.7876 3.675 89.712 4.05 89.6868 5.2L89.8884 20.8H85.932L70.3332 6.975V16.775C70.3332 17.85 70.3836 18.35 71.4924 18.35H74.2644V20.8H62.8992V18.35H65.5704C66.5532 18.35 66.528 17.4 66.528 16.725V5.275C66.528 4.525 66.4272 3.675 64.8648 3.675H62.6976V1.225H72.3744ZM106.697 18.35C106.924 18.35 107.15 18.325 107.377 18.3C107.604 18.225 107.806 18.05 107.906 17.825C107.932 17.65 107.957 17.475 107.957 17.3V13.45C107.957 13.325 107.957 13.325 107.78 13.125C107.604 12.925 100.674 5.125 100.372 4.775C99.9684 4.35 99.288 3.7 98.2296 3.7H95.8356V1.225H109.418V3.675H107.78C107.402 3.675 107.15 4.025 107.478 4.425C107.478 4.425 112.039 9.85 112.09 9.9C112.14 9.95 112.165 9.975 112.216 9.925C112.266 9.875 116.903 4.475 116.928 4.425C117.079 4.225 117.054 3.925 116.827 3.775C116.726 3.7 116.626 3.675 116.525 3.675H114.836V1.225H126V3.675H123.505C122.598 3.675 122.245 3.85 121.565 4.6L114.055 13.075C113.98 13.175 113.954 13.3 113.954 13.425V17.275C113.954 17.45 113.98 17.625 114.005 17.8C114.106 18.025 114.307 18.2 114.534 18.275C114.761 18.3 114.988 18.325 115.214 18.325H117.76V20.775H104.252V18.325L106.697 18.35Z" fill="black"/>
</svg>
