<svg width="47" height="51" viewBox="0 0 47 51" fill="none" xmlns="http://www.w3.org/2000/svg">
<path d="M37.2883 7.99C35.2393 5.77893 34.1101 2.93939 34.111 0H24.8489V35.1333C24.7774 37.0346 23.9282 38.8354 22.4802 40.1567C21.0321 41.4779 19.0981 42.2164 17.0855 42.2167C12.8291 42.2167 9.29209 38.93 9.29209 34.85C9.29209 29.9767 14.2679 26.3217 19.3935 27.8233V18.87C9.0523 17.5667 0 25.16 0 34.85C0 44.285 8.27296 51 17.0555 51C26.4675 51 34.111 43.775 34.111 34.85V17.0283C37.8668 19.5779 42.376 20.9458 47 20.9383V12.1833C47 12.1833 41.3648 12.4383 37.2883 7.99Z" fill="#F0F0F0"/>
</svg>
