<svg width="53" height="37" viewBox="0 0 53 37" fill="none" xmlns="http://www.w3.org/2000/svg">
<path d="M21.2 26.2143L34.9535 18.5L21.2 10.7857V26.2143ZM51.834 6.08C52.1785 7.28857 52.417 8.90857 52.576 10.9657C52.7615 13.0229 52.841 14.7971 52.841 16.34L53 18.5C53 24.1314 52.576 28.2714 51.834 30.92C51.1715 33.2343 49.6345 34.7257 47.2495 35.3686C46.004 35.7029 43.725 35.9343 40.227 36.0886C36.782 36.2686 33.6285 36.3457 30.7135 36.3457L26.5 36.5C15.3965 36.5 8.48 36.0886 5.7505 35.3686C3.3655 34.7257 1.8285 33.2343 1.166 30.92C0.8215 29.7114 0.583 28.0914 0.424 26.0343C0.2385 23.9771 0.159 22.2029 0.159 20.66L0 18.5C0 12.8686 0.424 8.72857 1.166 6.08C1.8285 3.76571 3.3655 2.27429 5.7505 1.63143C6.996 1.29714 9.275 1.06571 12.773 0.911428C16.218 0.731428 19.3715 0.654286 22.2865 0.654286L26.5 0.5C37.6035 0.5 44.52 0.911429 47.2495 1.63143C49.6345 2.27429 51.1715 3.76571 51.834 6.08Z" fill="white"/>
</svg>
